<svg width="210" height="219" xmlns="http://www.w3.org/2000/svg">
 <!-- Created with Method Draw - http://github.com/duopixel/Method-Draw/ -->

 <g>
  <title>background</title>
  <rect fill="none" id="canvas_background" height="221" width="212" y="-1" x="-1"/>
  <g display="none" overflow="visible" y="0" x="0" height="100%" width="100%" id="canvasGrid">
   <rect fill="url(#gridpattern)" stroke-width="0" y="0" x="0" height="100%" width="100%"/>
  </g>
 </g>
 <g>
  <title>Layer 1</title>
  <style transform="matrix(0.12130066943463191,0,0,0.12130066943463191,0,0) " type="text/css">.st0{fill:#FFFFFF;}</style>
  <g stroke="null" id="svg_12">
   <path stroke="null" id="svg_6" d="m135.864185,202.16255l-61.5884,0l0,-10.218075c0,-5.598945 4.61913,-10.218075 10.218075,-10.218075l41.152249,0c5.598945,0 10.218075,4.61913 10.218075,10.218075l0,10.218075zm-60.188663,-1.399736l58.788927,0l0,-8.818339c0,-4.899077 -3.919262,-8.818339 -8.818339,-8.818339l-41.152249,0c-4.899077,0 -8.818339,3.919262 -8.818339,8.818339l0,8.818339z"/>
   <path stroke="null" id="svg_8" d="m154.060758,216.299887l-98.121519,0l0,-5.318998c0,-5.598945 4.61913,-10.218075 10.218075,-10.218075l77.685368,0c5.598945,0 10.218075,4.61913 10.218075,10.218075l0,5.318998zm-96.721782,-1.399736l95.322046,0l0,-3.919262c0,-4.899077 -3.919262,-8.818339 -8.818339,-8.818339l-77.685368,0c-4.899077,0 -8.818339,3.919262 -8.818339,8.818339l0,3.919262z"/>
   <path stroke="null" id="svg_9" d="m115.707982,182.986162l-21.275993,0l0,-47.171115c-2.799473,-1.119789 -16.93681,-7.418603 -30.234305,-28.414648c-25.615175,-6.998682 -43.531801,-19.316362 -53.329955,-36.673093c-13.577443,-23.795518 -6.298814,-48.010957 -6.018866,-49.130746l1.259763,-4.199209l34.853435,0c-0.139974,-4.61913 -0.279947,-9.23826 -0.279947,-13.997364l0,-0.699868l128.775745,0l0,0.699868c0,4.61913 -0.139974,9.378234 -0.279947,13.997364l34.713462,0l1.259763,4.199209c0.279947,0.979815 7.558576,25.335228 -6.018866,49.130746c-9.658181,16.93681 -27.014912,29.114516 -51.790245,36.253172c-13.577443,22.535755 -28.694595,27.994727 -31.774015,28.974543l0,47.031142l0.139974,0zm-19.876256,-1.399736l18.47652,0l0,-46.751194l0.559895,-0.139974c0.139974,0 16.93681,-4.339183 31.494068,-28.694595l0.139974,-0.279947l0.279947,-0.139974c24.495386,-6.998682 41.712143,-19.036414 51.230351,-35.693277c13.157522,-23.235624 6.15884,-47.031142 5.878893,-48.010957l-0.979815,-3.07942l-35.133383,0l0,-0.699868c0.139974,-4.61913 0.279947,-9.378234 0.279947,-13.85739l-125.976272,0c0,4.61913 0.139974,9.378234 0.279947,13.85739l0,0.699868l-35.133383,0l-0.979815,3.359367c-0.279947,0.979815 -7.278629,24.63536 5.878893,48.010957c9.658181,16.93681 27.434833,29.114516 52.770061,35.973224l0.279947,0.139974l0.139974,0.279947c14.137337,22.675729 29.954358,28.274674 30.094332,28.274674l0.419921,0.139974l0,46.611221zm-36.813066,-86.503707l-1.53971,-0.559895c-17.776652,-6.438787 -30.374279,-16.096968 -37.512934,-28.694595c-8.398418,-14.557258 -7.278629,-29.674411 -6.018866,-37.372961l0.139974,-0.559895l28.834569,0l0,0.699868c1.959631,25.335228 7.138655,47.171115 15.257126,64.947767l0.839842,1.53971zm-43.811748,-65.787609c-1.259763,7.69855 -1.959631,21.975861 5.878893,35.833251l0,0c6.858708,11.897759 18.616494,21.136019 35.133383,27.434833c-7.838524,-17.496704 -12.737601,-38.772697 -14.697232,-63.268083l-26.315044,0zm137.034189,65.367688l0.699868,-1.53971c7.558576,-17.496704 12.31768,-39.192618 14.137337,-64.527846l0,-0.699868l28.834569,0l0.139974,0.559895c1.399736,7.69855 2.379552,22.675729 -6.018866,37.372961l-0.559895,-0.279947l0.559895,0.279947c-6.998682,12.31768 -19.176388,21.695914 -36.253172,28.134701l-1.53971,0.699868zm16.236942,-65.367688c-1.819657,24.495386 -6.438787,45.631405 -13.577443,62.848162c15.956994,-6.298814 27.434833,-15.3971 34.013594,-27.014912c7.978497,-13.85739 7.138655,-28.134701 5.878893,-35.833251l-26.315044,0z"/>
   <g stroke="null" transform="matrix(1.3997363580285611,0,0,1.3997363580285611,-1106.1573374842549,-1154.5637701610938) " id="svg_10">
    <path stroke="null" id="svg_11" d="m872.125298,891.672772l-12,0l0,-30.2l-6.7,1.5l-2.4,-9.6l12.5,-3.5l8.7,0l0,41.8l-0.1,0zm-11.1,-1l10,0l0,-39.8l-7.5,0l-11.3,3.2l1.9,7.7l7,-1.6l0,30.5l-0.1,0z"/>
   </g>
  </g>
 </g>
</svg>